HIERARCHY
ROOT joint_Root
{
	OFFSET 0.0 0.0 0.0
	CHANNELS 6 Xposition Yposition Zposition Zrotation Xrotation Yrotation 
	JOINT Hips
	{
		OFFSET -17.1583 93.1646 452.98
		CHANNELS 6 Xposition Yposition Zposition Zrotation Xrotation Yrotation 
		JOINT Spine
		{
			OFFSET 15.7357 0.0 0.0
			CHANNELS 6 Xposition Yposition Zposition Zrotation Xrotation Yrotation 
			JOINT Chest
			{
				OFFSET 8.98455 -0.406207 0.0
				CHANNELS 6 Xposition Yposition Zposition Zrotation Xrotation Yrotation 
				JOINT Neck
				{
					OFFSET 16.3773 0.0 0.0
					CHANNELS 6 Xposition Yposition Zposition Zrotation Xrotation Yrotation 
					JOINT Head
					{
						OFFSET 6.45672 0.0 0.0
						CHANNELS 6 Xposition Yposition Zposition Zrotation Xrotation Yrotation 
						End Site
						{
							OFFSET 0.0 0.0 0.0
						}
					}
				}
				JOINT Shoulder_L
				{
					OFFSET 12.9942 -0.242716 4.98039
					CHANNELS 6 Xposition Yposition Zposition Zrotation Xrotation Yrotation 
					JOINT UpperArm_L
					{
						OFFSET 5.34809 0.0 0.0
						CHANNELS 6 Xposition Yposition Zposition Zrotation Xrotation Yrotation 
						JOINT LowerArm_L
						{
							OFFSET 24.3286 1.87007e-05 0.0
							CHANNELS 6 Xposition Yposition Zposition Zrotation Xrotation Yrotation 
							JOINT Hand_L
							{
								OFFSET 22.2916 0.0 0.0
								CHANNELS 6 Xposition Yposition Zposition Zrotation Xrotation Yrotation 
								End Site
								{
									OFFSET 0.0 0.0 0.0
								}
							}
						}
					}
				}
				JOINT Shoulder_R
				{
					OFFSET 12.9945 -0.242716 -4.98039
					CHANNELS 6 Xposition Yposition Zposition Zrotation Xrotation Yrotation 
					JOINT UpperArm_R
					{
						OFFSET -5.34813 0.0 0.0
						CHANNELS 6 Xposition Yposition Zposition Zrotation Xrotation Yrotation 
						JOINT LowerArm_R
						{
							OFFSET -24.3289 0.000322201 0.0
							CHANNELS 6 Xposition Yposition Zposition Zrotation Xrotation Yrotation 
							JOINT Hand_R
							{
								OFFSET -22.2915 -0.000108084 0.0
								CHANNELS 6 Xposition Yposition Zposition Zrotation Xrotation Yrotation 
								End Site
								{
									OFFSET 0.0 0.0 0.0
								}
							}
						}
					}
				}
			}
		}
		JOINT UpperLeg_L
		{
			OFFSET -2.19248 -6.46944 0.0
			CHANNELS 6 Xposition Yposition Zposition Zrotation Xrotation Yrotation 
			JOINT LowerLeg_L
			{
				OFFSET 39.0811 0.0 -1.23785e-05
				CHANNELS 6 Xposition Yposition Zposition Zrotation Xrotation Yrotation 
				JOINT Foot_L
				{
					OFFSET 40.9854 0.0 -1.26872e-05
					CHANNELS 6 Xposition Yposition Zposition Zrotation Xrotation Yrotation 
					JOINT Toes_L
					{
						OFFSET 11.7543 0.0 0.0
						CHANNELS 6 Xposition Yposition Zposition Zrotation Xrotation Yrotation 
						End Site
						{
							OFFSET 0.0 0.0 0.0
						}
					}
				}
			}
		}
		JOINT UpperLeg_R
		{
			OFFSET -2.19251 6.46944 0.0
			CHANNELS 6 Xposition Yposition Zposition Zrotation Xrotation Yrotation 
			JOINT LowerLeg_R
			{
				OFFSET -39.0811 -0.00228153 -0.0401928
				CHANNELS 6 Xposition Yposition Zposition Zrotation Xrotation Yrotation 
				JOINT Foot_R
				{
					OFFSET -40.9854 0.0 0.0
					CHANNELS 6 Xposition Yposition Zposition Zrotation Xrotation Yrotation 
					JOINT Toes_R
					{
						OFFSET -11.7543 0.0 0.0
						CHANNELS 6 Xposition Yposition Zposition Zrotation Xrotation Yrotation 
						End Site
						{
							OFFSET 0.0 0.0 0.0
						}
					}
				}
			}
		}
	}
}
MOTION
Frames:	6
Frame Time:	0.0333333
0.000000 0.000000 0.000000 0.000000 0.000000 -0.000000 -0.689436 90.859000 9.934880 88.803700 0.166080 7.798390 15.735700 0.000005 -0.000001 -105.667000 89.067200 106.852000 8.984550 -0.406207 -0.000000 -9.564650 0.322919 2.403140 16.377300 -0.000001 -0.000001 -6.378870 -1.432050 -0.776988 6.456720 -0.000001 -0.000000 0.329688 -1.801270 -3.729820 12.994200 -0.242716 4.980390 -88.883600 -2.234970 -63.449100 5.348090 -0.000007 -0.000001 -69.753100 -57.078200 -113.741000 24.328600 0.000019 0.000005 -0.317914 -16.561400 -1.115340 22.291600 -0.000001 0.000005 49.166500 4.305310 19.709800 12.994500 -0.242716 -4.980390 92.969900 -5.968130 -63.481800 -5.348130 -0.000001 -0.000004 -81.393700 -58.136300 -129.411000 -24.328900 0.000322 -0.000009 -0.001101 -33.280300 -0.000195 -22.291500 -0.000108 -0.000004 50.645700 5.516830 -7.227620 -2.192480 -6.469440 -0.000000 -172.527000 -6.581910 11.777500 39.081100 -0.000007 -0.000012 0.053514 -0.156953 18.827200 40.985400 -0.000006 -0.000013 0.443223 12.995300 -75.814600 11.754300 -0.000000 0.000003 -0.002589 0.203490 -8.320260 -2.192510 6.469440 -0.000001 174.821000 5.465710 -167.434000 -39.081100 -0.002282 -0.040193 0.024608 -0.067532 17.491600 -40.985400 0.000008 0.000006 -5.707360 6.524360 -76.729000 -11.754300 -0.000006 -0.000006 -0.012475 0.288951 -4.828610
0.000000 0.000000 0.000000 0.000000 0.000000 -0.000000 -0.673719 90.865900 9.906380 88.845200 0.219941 7.739720 15.735700 0.000005 -0.000001 -105.769000 89.064500 106.932000 8.984550 -0.406207 -0.000000 -9.569020 0.330639 2.362190 16.377300 -0.000001 -0.000001 -6.399310 -1.416600 -0.767796 6.456720 -0.000001 -0.000000 0.332337 -1.808420 -3.720330 12.994200 -0.242716 4.980390 -88.893000 -2.207570 -63.359600 5.348090 -0.000007 -0.000001 -69.923900 -56.887400 -113.833000 24.328600 0.000019 0.000005 -0.324129 -16.449600 -1.144660 22.291600 -0.000001 0.000005 49.128500 4.300440 19.784900 12.994500 -0.242716 -4.980390 92.963100 -5.957620 -63.494300 -5.348130 -0.000001 -0.000004 -81.401000 -58.013000 -129.389000 -24.328900 0.000322 -0.000009 -0.001085 -33.063700 -0.000194 -22.291500 -0.000108 -0.000004 50.630200 5.513310 -7.079780 -2.192480 -6.469440 -0.000000 -172.581000 -6.576890 11.678200 39.081100 -0.000007 -0.000012 0.051235 -0.150201 18.835000 40.985400 -0.000006 -0.000013 0.455054 13.026100 -75.811300 11.754300 -0.000000 0.000003 -0.002835 0.206355 -8.203670 -2.192510 6.469440 -0.000001 174.796000 5.456320 -167.502000 -39.081100 -0.002282 -0.040193 0.027197 -0.075731 17.495200 -40.985400 0.000008 0.000006 -5.665540 6.472620 -76.766900 -11.754300 -0.000006 -0.000006 -0.012655 0.290175 -4.778470
0.000000 0.000000 0.000000 0.000000 0.000000 -0.000000 -0.665707 90.870800 9.916830 88.856100 0.263380 7.702840 15.735700 0.000005 -0.000001 -105.740000 89.061500 106.899000 8.984550 -0.406207 -0.000000 -9.575090 0.332042 2.352500 16.377300 -0.000001 -0.000001 -6.450590 -1.455390 -0.698126 6.456720 -0.000001 -0.000000 0.284533 -1.789000 -3.797550 12.994200 -0.242716 4.980390 -88.910500 -2.171750 -63.349200 5.348090 -0.000007 -0.000001 -69.908400 -56.876000 -113.748000 24.328600 0.000019 0.000005 -0.328576 -16.541600 -1.154080 22.291600 -0.000001 0.000005 49.209200 4.301940 19.761800 12.994500 -0.242716 -4.980390 92.954000 -5.940870 -63.500300 -5.348130 -0.000001 -0.000004 -81.192000 -57.959500 -129.269000 -24.328900 0.000322 -0.000009 -0.001102 -33.167700 -0.000194 -22.291500 -0.000108 -0.000004 50.716100 5.515790 -7.183770 -2.192480 -6.469440 -0.000000 -172.607000 -6.514360 11.680400 39.081100 -0.000007 -0.000012 0.051483 -0.151674 18.749100 40.985400 -0.000006 -0.000013 0.470760 13.077500 -75.727500 11.754300 -0.000000 0.000003 -0.002718 0.205001 -8.258780 -2.192510 6.469440 -0.000001 174.792000 5.460070 -167.506000 -39.081100 -0.002282 -0.040193 0.025245 -0.069773 17.440200 -40.985400 0.000008 0.000006 -5.717900 6.391390 -76.703200 -11.754300 -0.000006 -0.000006 -0.012008 0.285742 -4.960080
0.000000 0.000000 0.000000 0.000000 0.000000 -0.000000 -0.643597 90.872000 9.932080 88.889100 0.297648 7.633070 15.735700 0.000005 -0.000001 -106.001000 89.036700 107.143000 8.984550 -0.406207 -0.000000 -9.620580 0.355888 2.321150 16.377300 -0.000001 -0.000001 -6.490930 -1.487920 -0.674161 6.456720 -0.000001 -0.000000 0.228684 -1.823430 -3.751250 12.994200 -0.242716 4.980390 -88.928500 -2.137820 -63.370700 5.348090 -0.000007 -0.000001 -69.947800 -56.933600 -113.758000 24.328600 0.000019 0.000005 -0.318216 -16.414500 -1.126160 22.291600 -0.000001 0.000005 49.061000 4.292830 19.902400 12.994500 -0.242716 -4.980390 92.954100 -5.946490 -63.520900 -5.348130 -0.000001 -0.000004 -81.153900 -57.905600 -129.223000 -24.328900 0.000322 -0.000009 -0.001094 -33.047600 -0.000194 -22.291500 -0.000108 -0.000004 50.793900 5.513920 -7.104220 -2.192480 -6.469440 -0.000000 -172.658000 -6.567450 11.640700 39.081100 -0.000007 -0.000012 0.052233 -0.154124 18.721800 40.985400 -0.000006 -0.000013 0.479749 13.066600 -75.798500 11.754300 -0.000000 0.000003 -0.002604 0.203666 -8.313110 -2.192510 6.469440 -0.000001 174.746000 5.476790 -167.544000 -39.081100 -0.002282 -0.040193 0.025430 -0.070490 17.410100 -40.985400 0.000008 0.000006 -5.712060 6.400810 -76.732900 -11.754300 -0.000006 -0.000006 -0.012258 0.287468 -4.889400
0.000000 0.000000 0.000000 0.000000 0.000000 -0.000000 -0.629220 90.860500 9.973350 88.888500 0.329782 7.576010 15.735700 0.000005 -0.000001 -106.274000 89.022400 107.421000 8.984550 -0.406207 -0.000000 -9.645680 0.371633 2.332410 16.377300 -0.000001 -0.000001 -6.589150 -1.500170 -0.637255 6.456720 -0.000001 -0.000000 0.202506 -1.838160 -3.787720 12.994200 -0.242716 4.980390 -88.937400 -2.119630 -63.366600 5.348090 -0.000007 -0.000001 -69.737100 -57.048300 -113.524000 24.328600 0.000019 0.000005 -0.311279 -16.436700 -1.100130 22.291600 -0.000001 0.000005 49.112500 4.288550 19.968100 12.994500 -0.242716 -4.980390 92.969700 -5.978680 -63.523500 -5.348130 -0.000001 -0.000004 -81.135100 -57.887000 -129.258000 -24.328900 0.000322 -0.000009 -0.001100 -33.084000 -0.000194 -22.291500 -0.000108 -0.000004 50.741100 5.514630 -7.134190 -2.192480 -6.469440 -0.000000 -172.673000 -6.534560 11.580600 39.081100 -0.000007 -0.000012 0.052304 -0.154105 18.747600 40.985400 -0.000006 -0.000013 0.500557 13.086900 -75.743100 11.754300 -0.000000 0.000003 -0.002425 0.201547 -8.399300 -2.192510 6.469440 -0.000001 174.742000 5.468540 -167.573000 -39.081100 -0.002282 -0.040193 0.024910 -0.068829 17.410900 -40.985400 0.000008 0.000006 -5.766300 6.406760 -76.703400 -11.754300 -0.000006 -0.000006 -0.012196 0.287043 -4.906790
0.000000 0.000000 0.000000 0.000000 0.000000 -0.000000 -0.610829 90.868400 10.030200 88.902200 0.363301 7.564310 15.735700 0.000005 -0.000001 -106.130000 89.006100 107.273000 8.984550 -0.406207 -0.000000 -9.678540 0.376200 2.325650 16.377300 -0.000001 -0.000001 -6.573740 -1.501340 -0.622158 6.456720 -0.000001 -0.000000 0.113148 -1.836150 -3.777230 12.994200 -0.242716 4.980390 -88.943900 -2.101910 -63.315700 5.348090 -0.000007 -0.000001 -69.698500 -57.078200 -113.483000 24.328600 0.000019 0.000005 -0.304606 -16.299200 -1.085390 22.291600 -0.000001 0.000005 49.127200 4.283700 20.042700 12.994500 -0.242716 -4.980390 92.958100 -5.955550 -63.524600 -5.348130 -0.000001 -0.000004 -81.291500 -57.716200 -129.381000 -24.328900 0.000322 -0.000009 -0.001098 -33.069200 -0.000194 -22.291500 -0.000108 -0.000004 50.656900 5.515860 -7.186880 -2.192480 -6.469440 -0.000000 -172.695000 -6.517850 11.704900 39.081100 -0.000007 -0.000012 0.051606 -0.153640 18.566900 40.985400 -0.000006 -0.000013 0.491022 13.077800 -75.761200 11.754300 -0.000000 0.000003 -0.002543 0.202952 -8.342150 -2.192510 6.469440 -0.000001 174.678000 5.511450 -167.470000 -39.081100 -0.002282 -0.040193 0.017746 -0.046404 17.262900 -40.985400 0.000008 0.000006 -6.009190 6.451170 -76.623100 -11.754300 -0.000006 -0.000006 -0.012286 0.287660 -4.881530
